<svg height="700pt" preserveAspectRatio="xMidYMid meet" viewBox="0 0 700 700" width="700pt" xmlns="http://www.w3.org/2000/svg"><g transform="matrix(.1 0 0 -.1 0 700)"><path d="m234 6982c-77-27-128-73-166-150l-33-67v-3265-3265l33-67c24-50 45-76 83-103 95-70-190-65 3383-65 2265 0 3253 3 3281 11 52 14 123 62 158 107l27 35v3346 3345l-26 37c-14 21-43 49-64 64-85 59 155 55-3379 55-3073-1-3249-2-3297-18zm1945-2795c7-9 12-119 13-338l3-324 31-3c28-3 41 9 159 140 70 79 137 151 148 161 16 14 40 17 158 17 130 0 139-1 149-21 15-27 12-31-173-236-177-195-192-215-180-237 5-8 108-121 231-250 170-180 222-241 222-261v-25h-147-147l-196 195c-258 257-260 257-260 7 0-93-4-172-10-183-10-17-22-19-118-19-71 0-112 4-120 12-9 9-12 174-12 679 0 367 3 674 6 683 5 13 25 16 119 16 82 0 116-4 124-13zm1055-9c13-18 16-52 16-168 0-100 4-150 12-158s52-12 133-12c76 0 129-5 145-13 24-12 25-18 28-106 4-132 5-131-163-131-88 0-135-4-143-12s-12-53-12-135c0-174 19-253 79-316 40-44 79-60 164-67 108-10 115-18 119-138s-3-126-112-118c-159 12-275 60-366 150-33 34-70 82-83 109-54 111-54 119-58 620-4 415-2 471 12 493 15 23 21 24 115 24 91 0 100-2 114-22zm-1792-373c145-49 274-180 319-324 29-91 29-223 0-312-95-297-432-442-713-307-182 87-291 259-291 458-1 173 72 318 208 415 143 102 310 127 477 70zm2913 3c33-11 64-24 70-29 15-14 22-11 29 14 8 34 46 47 132 47 66 0 78-3 99-25l25-24v-306c0-329 4-357 52-389 14-9 45-20 71-25 73-13 77-20 77-131 0-128-7-135-129-135-102 0-158 21-218 83l-39 40-54-34c-83-52-155-76-250-81-152-10-281 39-392 148-125 123-178 289-145 454 64 313 371 493 672 393zm1931-756c23-15 34-53 34-122s-11-107-34-122c-6-4-235-8-508-8h-497l-15 22c-12 16-16 47-16 108s4 92 16 108l15 22h497c273 0 502-4 508-8z"/><path d="m1170 3559c-204-92-213-368-15-464 182-89 392 53 372 250-14 133-125 235-257 235-34 0-72-8-100-21z"/><path d="m4085 3557c-103-49-162-150-152-257 9-99 60-170 152-211 180-80 384 69 362 263-15 126-115 217-247 225-53 3-74 0-115-20z"/></g></svg>